<svg xmlns="http://www.w3.org/2000/svg" viewBox="0 0 120 120" width="120" height="120">
  <circle cx="60" cy="60" r="56" fill="#f8f3eb" />
  <path d="M30 60c6-22 40-30 60-18 0 0 4 22-10 30s-10 14-30 14-20-4-20-14Z" fill="#5a7d4c" />
  <path d="M30 46c10-8 18-8 24-4" stroke="#3f5937" stroke-width="6" stroke-linecap="round" fill="none" />
  <path d="M90 46c-10-8-18-8-24-4" stroke="#3f5937" stroke-width="6" stroke-linecap="round" fill="none" />
  <circle cx="46" cy="68" r="8" fill="#fff3da" />
  <circle cx="74" cy="68" r="8" fill="#fff3da" />
  <circle cx="46" cy="70" r="3" fill="#264228" />
  <circle cx="74" cy="70" r="3" fill="#264228" />
  <path d="M46 86c10 6 18 6 28 0" stroke="#264228" stroke-width="4" stroke-linecap="round" fill="none" />
</svg>
