<svg xmlns="http://www.w3.org/2000/svg" viewBox="0 0 120 120" width="120" height="120">
  <circle cx="60" cy="60" r="56" fill="#f8f3eb" />
  <path d="M44 42c-10-5-14-4-18 6-4 10-2 27 16 31" fill="#5a7d4c" />
  <path d="M76 42c10-5 14-4 18 6 4 10 2 27-16 31" fill="#5a7d4c" />
  <path d="M44 40c4-12 14-16 20-14 6-2 16 2 20 14" fill="#3f5937" opacity="0.8" />
  <circle cx="42" cy="64" r="8" fill="#fff3da" />
  <circle cx="78" cy="64" r="8" fill="#fff3da" />
  <circle cx="42" cy="66" r="4" fill="#264228" />
  <circle cx="78" cy="66" r="4" fill="#264228" />
  <path d="M44 80c10 6 20 6 30 0" stroke="#264228" stroke-width="4" stroke-linecap="round" fill="none" />
</svg>
